<svg width="14" height="15" viewBox="0 0 14 15" fill="none" xmlns="http://www.w3.org/2000/svg">
<path d="M0.273438 13.3555L0.875 10.375L7.98438 3.23828L8.42188 3.67578L11.0469 6.30078L11.4844 6.73828L4.375 13.875L1.39453 14.4766L0 14.75L0.273438 13.3555ZM8.61328 2.63672L9.57031 1.67969L10.5 0.75L11.4023 1.67969L13.0703 3.32031L14 4.25L13.0703 5.17969L12.1133 6.13672L11.6758 5.69922L9.05078 3.07422L8.61328 2.63672ZM2.70703 10.375L2.07812 11.0312L1.66797 13.082L3.71875 12.6719L4.375 12.0156V11.6875H3.0625V10.375H2.70703ZM8.91406 5.5625L8.3125 4.93359L7.98438 5.26172L4.04688 9.19922L3.74609 9.5L4.375 10.1289L4.67578 9.80078L8.61328 5.86328L8.91406 5.5625Z" fill="#808080"/>
</svg>
