<svg width="10" height="10" viewBox="0 0 10 10" fill="none" xmlns="http://www.w3.org/2000/svg">
<path d="M8 1.31609H1.75C1.57422 1.31609 1.4375 1.47234 1.4375 1.62859V7.87859C1.4375 8.05437 1.57422 8.19109 1.75 8.19109H8C8.15625 8.19109 8.3125 8.05437 8.3125 7.87859V1.62859C8.3125 1.47234 8.15625 1.31609 8 1.31609ZM1.75 0.378593H8C8.68359 0.378593 9.25 0.945 9.25 1.62859V7.87859C9.25 8.58172 8.68359 9.12859 8 9.12859H1.75C1.04688 9.12859 0.5 8.58172 0.5 7.87859V1.62859C0.5 0.945 1.04688 0.378593 1.75 0.378593Z" fill="white"/>
</svg>
