<svg width="14" height="17" viewBox="0 0 14 17" fill="none" xmlns="http://www.w3.org/2000/svg">
<path d="M6.875 3.87859C6.84375 3.84734 6.78125 3.84734 6.78125 3.81609C6.78125 3.81609 6.78125 3.78484 6.8125 3.78484C6.84375 3.75359 6.90625 3.75359 6.96875 3.78484C7 3.81609 7.0625 3.84734 7.0625 3.87859C7.0625 3.90984 7 3.90984 6.96875 3.90984C6.9375 3.90984 6.90625 3.87859 6.875 3.87859ZM6.1875 3.90984C6.15625 3.94109 6.125 3.90984 6.125 3.87859C6.09375 3.84734 6.1875 3.81609 6.21875 3.78484C6.28125 3.75359 6.34375 3.75359 6.375 3.78484C6.40625 3.78484 6.40625 3.81609 6.40625 3.81609C6.40625 3.84734 6.34375 3.84734 6.28125 3.87859C6.25 3.87859 6.25 3.90984 6.1875 3.90984ZM13.125 12.6286C13.4688 13.0348 13.5938 13.3161 13.5938 13.5661C13.5938 13.8161 13.4062 14.0036 13.1562 14.1286C12.6875 14.4098 12 14.6286 11.5625 15.1286C11.125 15.6598 10.5938 15.9723 10.0625 16.0036C9.53125 16.0661 9.0625 15.8161 8.8125 15.2848C8.78125 15.2223 8.75 15.1598 8.71875 15.0973C8.0625 15.1286 7.46875 14.9098 7 14.9411C6.3125 15.0036 5.875 15.1598 5.5 15.1598C5.34375 15.5036 5.03125 15.7223 4.6875 15.7848C4.1875 15.9098 3.5625 15.7848 2.9375 15.4723C2.34375 15.1598 1.625 15.1911 1.09375 15.0661C0.8125 15.0348 0.5625 14.9098 0.46875 14.6911C0.34375 14.4723 0.375 14.1598 0.53125 13.6911C0.5625 13.5348 0.53125 13.3161 0.5 13.0661C0.46875 12.9411 0.46875 12.8161 0.46875 12.6911C0.46875 12.5348 0.46875 12.4098 0.5625 12.2848C0.6875 12.0348 0.90625 11.9098 1.125 11.8473C1.34375 11.7536 1.53125 11.7223 1.65625 11.5973C1.8125 11.4098 1.96875 11.1286 2.1875 10.9411C2.09375 10.4098 2.1875 9.84734 2.375 9.28484C2.75 8.09734 3.59375 6.97234 4.1875 6.25359C4.6875 5.53484 4.84375 4.97234 4.875 4.25359C4.9375 3.25359 4.125 0.00359344 7.3125 0.00359344C9.84375 0.0348434 9.71875 2.69109 9.6875 4.12859C9.6875 5.06609 10.1875 5.69109 10.75 6.37859C11.2188 6.94109 11.8438 7.75359 12.1875 8.69109C12.4688 9.47234 12.5938 10.3161 12.3125 11.1598C12.3438 11.1911 12.4062 11.1911 12.4375 11.2223C12.4688 11.2536 12.5312 11.2848 12.5625 11.3161C12.75 11.5036 12.8438 11.7536 12.875 12.0348C12.9375 12.2848 13 12.5036 13.125 12.6286ZM6.96875 2.75359C6.875 2.97234 6.84375 3.22234 6.875 3.44109C7 3.44109 7.15625 3.50359 7.28125 3.56609C7.21875 3.19109 7.4375 2.81609 7.65625 2.84734C7.9375 2.84734 8.09375 3.31609 7.9375 3.69109C7.90625 3.75359 7.84375 3.81609 7.8125 3.84734C8.03125 3.90984 8.15625 3.97234 8.21875 4.00359C8.46875 3.69109 8.5625 3.19109 8.34375 2.72234C8.03125 2.06609 7.28125 2.06609 6.96875 2.75359ZM5.71875 2.37859C5.125 2.37859 4.96875 3.56609 5.4375 4.00359C5.6875 3.84734 5.65625 3.87859 5.625 3.84734C5.375 3.62859 5.40625 2.97234 5.6875 2.97234C5.875 2.94109 6.03125 3.28484 5.96875 3.56609C6.09375 3.50359 6.1875 3.47234 6.3125 3.44109C6.34375 2.81609 6.03125 2.37859 5.71875 2.37859ZM5.28125 4.28484C5.15625 4.37859 5.09375 4.50359 5.15625 4.65984C5.1875 4.81609 5.34375 5.00359 5.59375 5.15984C5.84375 5.28484 5.96875 5.50359 6.21875 5.62859C6.3125 5.65984 6.40625 5.65984 6.53125 5.69109C7.09375 5.72234 7.375 5.31609 7.71875 5.22234C8.09375 5.09734 8.34375 4.87859 8.4375 4.65984C8.53125 4.37859 8.375 4.19109 8.09375 4.06609C7.75 3.94109 7.59375 3.90984 7.40625 3.78484C7.09375 3.59734 6.8125 3.50359 6.59375 3.50359C6.15625 3.50359 5.875 3.81609 5.71875 3.94109C5.71875 3.97234 5.46875 4.12859 5.28125 4.28484ZM5.375 14.7223C5.4375 14.0661 4.40625 13.1911 4.09375 12.5661L3.5 11.4411C3.28125 11.1598 3.0625 11.0036 2.8125 10.9411C2.5625 10.9098 2.40625 11.0036 2.25 11.1598C2.09375 11.3161 1.96875 11.5661 1.8125 11.7223C1.5625 11.9411 1.5 11.9411 1.1875 12.0348C1 12.0973 0.84375 12.1911 0.71875 12.4098C0.65625 12.5661 0.65625 12.7848 0.6875 13.0348C0.75 13.2536 0.78125 13.5348 0.71875 13.7536V13.7848C0.5625 14.1911 0.5625 14.4411 0.625 14.5973C0.875 15.0661 2.09375 14.7848 3.03125 15.2848C4 15.7848 5.3125 15.8161 5.375 14.7223ZM5.34375 13.9098C6.5 14.7223 7.90625 14.4098 8.90625 13.6911C9 13.3473 9.09375 13.0348 9.125 12.7848C9.15625 12.3161 9.1875 11.8786 9.25 11.5348C9.34375 11.1286 9.5625 10.8161 9.9375 10.6911C10 10.0348 10.5 10.0348 11.125 10.2848C11.7188 10.5661 11.9375 10.7848 11.8438 11.0973C11.875 11.0973 11.9062 11.0973 11.9688 11.0973C12.125 10.5661 11.5312 10.2223 11 10.0036C11.0938 9.62859 11.0938 9.25359 11 8.90984C10.8125 8.09734 10.2812 7.40984 9.90625 7.06609C9.8125 7.06609 9.84375 7.12859 9.96875 7.25359C10.3438 7.59734 11.125 8.78484 10.7188 9.90984C10.5938 9.87859 10.4688 9.87859 10.375 9.87859C10.1875 8.97234 9.8125 8.22234 9.625 7.84734C9.28125 7.19109 8.71875 5.81609 8.46875 4.84734C8.3125 5.06609 8.09375 5.22234 7.78125 5.31609C7.625 5.37859 7.46875 5.50359 7.28125 5.59734C6.84375 5.84734 6.34375 5.87859 5.9375 5.56609C5.8125 5.47234 5.6875 5.34734 5.5625 5.25359C5.5 5.22234 5.40625 5.15984 5.375 5.12859C5.3125 6.31609 4.5 7.78484 4.125 8.65984C3.875 9.25359 3.71875 9.90984 3.6875 10.5661C3.03125 9.65984 3.53125 8.50359 3.78125 8.00359C4.09375 7.44109 4.125 7.28484 4.0625 7.34734C3.78125 7.78484 3.375 8.47234 3.21875 9.19109C3.125 9.56609 3.09375 9.94109 3.21875 10.2848C3.3125 10.6286 3.5625 10.9723 3.96875 11.2223C3.96875 11.2223 4.75 11.6598 5.1875 12.2536C5.40625 12.5661 5.46875 12.8161 5.40625 13.0348C5.34375 13.2223 5.125 13.2848 4.875 13.2848C5.03125 13.4723 5.21875 13.6911 5.34375 13.9098ZM13.375 13.5661C13.4062 13.3786 13.2812 13.1598 12.9688 12.7848C12.6562 12.4411 12.7188 11.7536 12.4062 11.4723C12.2188 11.2848 12 11.3161 11.7188 11.3161C11.4688 11.5973 10.9062 11.9411 10.5 11.8473C10.1562 11.7536 9.9375 11.3161 9.9375 10.9098C9.90625 10.9098 9.90625 10.9098 9.90625 10.9411C9.6875 11.0348 9.5625 11.2536 9.46875 11.5973C9.375 11.9098 9.375 12.3161 9.34375 12.7848C9.3125 13.1598 9.15625 13.6286 9.03125 14.0661C8.90625 14.4723 8.84375 14.8473 9 15.1911C9.21875 15.6598 9.59375 15.8473 10.0312 15.8161C10.5 15.7536 11 15.5036 11.4062 15.0036C12.0938 14.1598 13.3438 14.0661 13.375 13.5661ZM5.40625 4.65984C5.28125 4.56609 5.3125 4.47234 5.34375 4.47234C5.4375 4.47234 5.4375 4.56609 5.46875 4.62859C5.53125 4.65984 5.625 4.75359 5.71875 4.81609C5.90625 4.97234 6.1875 5.12859 6.5 5.12859C6.8125 5.12859 7.21875 4.94109 7.4375 4.81609C7.5625 4.75359 7.71875 4.59734 7.875 4.50359C7.96875 4.44109 7.96875 4.34734 8.0625 4.34734C8.15625 4.34734 8.09375 4.44109 7.96875 4.56609C7.84375 4.65984 7.65625 4.78484 7.5 4.87859C7.21875 5.03484 6.875 5.22234 6.5 5.22234C6.15625 5.22234 5.84375 5.03484 5.65625 4.87859C5.5625 4.81609 5.46875 4.72234 5.40625 4.65984Z" fill="black"/>
</svg>
